{"title":"The Orphan Killer *2011* [DVDRip.XviD-miguel] [ENG]","uid":6526378,"size":944406400,"categoryP":"video","categoryS":"movies","magnet":"?xt=urn:btih:7ee878e30e916e245aa9a1dd89957f9106259bd1&amp;dn=The+Orphan+Killer+%2A2011%2A+%5BDVDRip.XviD-miguel%5D+%5BENG%5D&amp;tr=udp%3A%2F%2Ftracker.openbittorrent.com%3A80&amp;tr=udp%3A%2F%2Fopen.demonii.com%3A1337&amp;tr=udp%3A%2F%2Ftracker.coppersurfer.tk%3A6969&amp;tr=udp%3A%2F%2Fexodus.desync.com%3A6969","seeders":1,"leechers":0,"uploader":"miguel1983","files":-1,"time":1310174142,"description":" &lt;a href=&quot;http://img834.imageshack.us/img834/6356/otheorphankillerwantsyo.jpg&quot; rel=&quot;nofollow&quot; target=&quot;_NEW&quot;&gt;http://img834.imageshack.us/img834/6356/otheorphankillerwantsyo.jpg&lt;/a&gt;\n\nCountry.......: USA\nGenre.........: Horror\nDate release..: 2011 [World]\nDirector......: Matt Farnsworth\nWriters.......: Matt Farnsworth\nDuration......: 83 min.\nMore..........: http://www.imdb.com/title/tt1179071\nTrailer.......:\n\nPilot :\nThe Orphan Killer is a tour de force murder flick that defies classification. It goes far beyond current trends in gore and breaks open a new suffering genre of horror. Marcus Miller is a serial murderer hellbent on teaching his estranged sister Audrey what it means to have family loyalty. His lessons are taught in massive doses of vulgar and unimaginable pain. Throughout her brutal torture we learn that Marcus is not the only Miller with Killer in the bloodline as Audrey proves to be a formidable adversary.\n\nCats :\nDiane Foster   \t ...  \tAudrey\nDavid Backus \t... \tThe Orphan Killer\nMatt Farnsworth \t... \tMike\nJames McCaffrey \t... \tDetective Jones\nJohn Savage \t... \tDetective Walker\nKaren Young \t... \tSister Mary\nCharlotte Maier \t... \tSister Constance\nSpencer List \t... \tYoung Marcus\nDana DeVestern \t... \tYoung Audrey\nMargot White \t... \tJenny Miller\nMike Doyle \t... \tMarcus Miller Sr.\nIvan Martin \t... \tJim\nKaren Olivo \t... \tAngie\nMatthew Arkin \t... \tBob\nEzra Knight \t... \tSimon \n\nData Technical :\n!!! SAMPLE !!!\nAudio.....: English\nSubtitles.: None\nFormat                           : AVI\nFormat/Info                      : Audio Video Interleave\nFile size                        : 896 MiB\nDuration                         : 1h 22mn\nOverall bit rate                 : 1 518 Kbps\nWriting application              : VirtualDubMod 1.5.4.1 (build 2178/release)\nWriting library                  : VirtualDubMod build 2178/release\nVideo\nID                               : 0\nFormat                           : MPEG-4 Visual\nFormat profile                   : Advanced Simple@L5\nFormat settings, BVOP            : Yes\nFormat settings, QPel            : No\nFormat settings, GMC             : No warppoints\nFormat settings, Matrix          : Custom\nCodec ID                         : XVID\nCodec ID/Hint                    : XviD\nDuration                         : 1h 22mn\nBit rate                         : 1 254 Kbps\nWidth                            : 720 pixels\nHeight                           : 304 pixels\nDisplay aspect ratio             : 2.35:1\nFrame rate                       : 29.970 fps\nColor space                      : YUV\nChroma subsampling               : 4:2:0\nBit depth                        : 8 bits\nScan type                        : Progressive\nBits/(Pixel*Frame)               : 0.191\nStream size                      : 741 MiB (83%)\nWriting library                  : XviD 64\nAudio\nID                               : 1\nFormat                           : AC-3\nFormat/Info                      : Audio Coding 3\nMode extension                   : CM (complete main)\nCodec ID                         : 2000\nDuration                         : 1h 22mn\nBit rate mode                    : Constant\nBit rate                         : 256 Kbps\nChannel(s)                       : 6 channels\nChannel positions                : Front: L C R, Side: L R, LFE\nSampling rate                    : 48.0 KHz\nBit depth                        : 16 bits\nStream size                      : 151 MiB (17%)\nAlignment                        : Aligned on interleaves\nInterleave, duration             : 96 ms (2.88 video frames)\nInterleave, preload duration     : 96 ms\n\nScreen : &lt;a href=&quot;\nhttp://img846.imageshack.us/img846/2783/theorphankiller2011s1.jpg&quot; rel=&quot;nofollow&quot; target=&quot;_NEW&quot;&gt;\nhttp://img846.imageshack.us/img846/2783/theorphankiller2011s1.jpg&lt;/a&gt; &lt;a href=&quot;\nhttp://img641.imageshack.us/img641/8638/theorphankiller2011s2.jpg&quot; rel=&quot;nofollow&quot; target=&quot;_NEW&quot;&gt;\nhttp://img641.imageshack.us/img641/8638/theorphankiller2011s2.jpg&lt;/a&gt; &lt;a href=&quot;\nhttp://img845.imageshack.us/img845/3443/theorphankiller2011s3.jpg&quot; rel=&quot;nofollow&quot; target=&quot;_NEW&quot;&gt;\nhttp://img845.imageshack.us/img845/3443/theorphankiller2011s3.jpg&lt;/a&gt; &lt;a href=&quot;\nhttp://img707.imageshack.us/img707/8721/theorphankiller2011s4.jpg&quot; rel=&quot;nofollow&quot; target=&quot;_NEW&quot;&gt;\nhttp://img707.imageshack.us/img707/8721/theorphankiller2011s4.jpg&lt;/a&gt; &lt;a href=&quot;\nhttp://img823.imageshack.us/img823/4150/theorphankiller2011s5.jpg&quot; rel=&quot;nofollow&quot; target=&quot;_NEW&quot;&gt;\nhttp://img823.imageshack.us/img823/4150/theorphankiller2011s5.jpg&lt;/a&gt;","torrent":{"xt":"urn:btih:7ee878e30e916e245aa9a1dd89957f9106259bd1","amp;dn":"The+Orphan+Killer+%2A2011%2A+%5BDVDRip.XviD-miguel%5D+%5BENG%5D","amp;tr":["udp%3A%2F%2Ftracker.openbittorrent.com%3A80","udp%3A%2F%2Fopen.demonii.com%3A1337","udp%3A%2F%2Ftracker.coppersurfer.tk%3A6969","udp%3A%2F%2Fexodus.desync.com%3A6969"],"infoHash":"7ee878e30e916e245aa9a1dd89957f9106259bd1","infoHashBuffer":{"type":"Buffer","data":[126,232,120,227,14,145,110,36,90,169,161,221,137,149,127,145,6,37,155,209]},"announce":[],"urlList":[]}}